<svg xmlns="http://www.w3.org/2000/svg" width="46" height="46" viewBox="0 0 46 46"><defs><style>.a{fill:#fff;}.b{fill:#1a1824;}</style></defs><rect class="a" width="46" height="46"/><g transform="translate(15 31) rotate(-90)"><path class="b" d="M4.34,5.6V.715a.714.714,0,1,0-1.429,0V5.6a3.628,3.628,0,0,0,0,7.114V15.93a.714.714,0,1,0,1.429,0V12.715a3.628,3.628,0,0,0,0-7.114Zm-.714,5.753a2.2,2.2,0,1,1,2.2-2.2A2.2,2.2,0,0,1,3.626,11.355Z" transform="translate(8.749)"/><path class="b" d="M4.34,2.013V.715a.715.715,0,1,0-1.429,0v1.3a3.628,3.628,0,0,0,0,7.114v6.8a.715.715,0,1,0,1.429,0V9.121a3.625,3.625,0,0,0,0-7.108ZM3.626,7.766a2.2,2.2,0,1,1,2.2-2.2A2.2,2.2,0,0,1,3.626,7.766Z"/></g></svg>