<svg xmlns="http://www.w3.org/2000/svg" width="40" height="40" viewBox="0 0 40 40"><defs><style>.a{fill:#fff;}.b{fill:none;}.c{fill:#c6181c;stroke:#fff;stroke-width:2px;}.d{stroke:none;}</style></defs><g transform="translate(-313 -43)"><path class="a" d="M0,0H40V40H0Z" transform="translate(313 43)"/><g transform="translate(322.565 52.565)"><path class="b" d="M0,0H20.87V20.87H0Z"/><g transform="translate(2.609 1.739)"><path d="M17.348,3.3,16.043,2l-1.3,1.3L13.435,2l-1.3,1.3L10.826,2l-1.3,1.3L8.217,2l-1.3,1.3L5.609,2V14.174H3v2.609a2.605,2.605,0,0,0,2.609,2.609H16.043a2.605,2.605,0,0,0,2.609-2.609V2Zm-.435,13.478a.87.87,0,1,1-1.739,0V14.174H7.348V4.609h9.565Z" transform="translate(-3 -2)"/><rect width="6" height="1" transform="translate(4.826 4.696)"/><rect width="2" height="1" transform="translate(10.826 4.696)"/><rect width="6" height="2" transform="translate(4.826 6.696)"/><rect width="2" height="2" transform="translate(10.826 6.696)"/></g></g><g class="c" transform="translate(338 67)"><circle class="d" cx="2.5" cy="2.5" r="2.5"/><circle class="b" cx="2.5" cy="2.5" r="3.5"/></g></g></svg>