<svg xmlns="http://www.w3.org/2000/svg" width="40" height="40" viewBox="0 0 40 40"><defs><style>.a{fill:#fff;}.b{fill:none;}.c{fill:#34c47c;stroke:#fff;stroke-width:2px;}.d{stroke:none;}</style></defs><g transform="translate(-269 -43)"><path class="a" d="M0,0H40V40H0Z" transform="translate(269 43)"/><g transform="translate(278.565 52.565)"><path class="b" d="M0,0H20.87V20.87H0Z"/><path d="M17.652,5.478h-1.9a2.6,2.6,0,0,0-4.626-2.3l-.435.583-.435-.591A2.6,2.6,0,0,0,5.635,5.478h-1.9a1.726,1.726,0,0,0-1.73,1.739L2,16.783a1.733,1.733,0,0,0,1.739,1.739H17.652a1.733,1.733,0,0,0,1.739-1.739V7.217A1.733,1.733,0,0,0,17.652,5.478ZM13.3,3.739a.87.87,0,1,1-.87.87A.872.872,0,0,1,13.3,3.739Zm-5.217,0a.87.87,0,1,1-.87.87A.872.872,0,0,1,8.087,3.739Zm9.565,13.043H3.739V15.043H17.652Zm0-4.348H3.739V7.217H8.157L6.348,9.678,7.757,10.7l2.07-2.817L10.7,6.7l.87,1.183,2.07,2.817,1.409-1.017L13.235,7.217h4.417Z" transform="translate(-0.261 -0.261)"/></g><g class="c" transform="translate(294 67)"><circle class="d" cx="2.5" cy="2.5" r="2.5"/><circle class="b" cx="2.5" cy="2.5" r="3.5"/></g></g></svg>