<svg xmlns="http://www.w3.org/2000/svg" width="12" height="12" viewBox="0 0 12 12"><defs><style>.a{fill:none;}.b{fill:#1a1824;}</style></defs><path class="a" d="M0,0H12V12H0Z"/><path class="b" d="M9.1,5.51,6.915,2.23A.5.5,0,0,0,6.5,2.02a.489.489,0,0,0-.415.215L3.895,5.51H1.5a.5.5,0,0,0-.5.5.421.421,0,0,0,.02.135L2.29,10.78a.994.994,0,0,0,.96.73h6.5a1,1,0,0,0,.965-.73l1.27-4.635L12,6.01a.5.5,0,0,0-.5-.5ZM5,5.51l1.5-2.2L8,5.51Zm1.5,4a1,1,0,1,1,1-1A1,1,0,0,1,6.5,9.51Z" transform="translate(-0.5 -1.01)"/></svg>